<?xml version="1.0" encoding="utf-8"?>
<!-- Generator: Adobe Illustrator 23.0.1, SVG Export Plug-In . SVG Version: 6.00 Build 0)  -->
<svg version="1.1" id="Layer_1" xmlns="http://www.w3.org/2000/svg" xmlns:xlink="http://www.w3.org/1999/xlink" x="0px" y="0px"
	 viewBox="0 0 270 270" style="enable-background:new 0 0 270 270;" xml:space="preserve">
<style type="text/css">
	.st0{fill:#E01E5A;}
	.st1{fill:#36C5F0;}
	.st2{fill:#2EB67D;}
	.st3{fill:#ECB22E;}
</style>
<g>
	<g>
		<path class="st0" d="M72.6,163.4c0,12.4-10.2,22.6-22.6,22.6s-22.6-10.2-22.6-22.6c0-12.4,10.2-22.6,22.6-22.6h22.6V163.4z"/>
		<path class="st0" d="M84,163.4c0-12.4,10.2-22.6,22.6-22.6s22.6,10.2,22.6,22.6V220c0,12.4-10.2,22.6-22.6,22.6S84,232.5,84,220
			C84,220,84,163.4,84,163.4z"/>
	</g>
	<g>
		<path class="st1" d="M106.6,72.6C94.1,72.6,84,62.4,84,50s10.2-22.6,22.6-22.6s22.6,10.2,22.6,22.6v22.6H106.6z"/>
		<path class="st1" d="M106.6,84c12.4,0,22.6,10.2,22.6,22.6s-10.2,22.6-22.6,22.6H50c-12.4,0-22.6-10.2-22.6-22.6S37.5,84,50,84
			C50,84,106.6,84,106.6,84z"/>
	</g>
	<g>
		<path class="st2" d="M197.4,106.6c0-12.4,10.2-22.6,22.6-22.6c12.4,0,22.6,10.2,22.6,22.6s-10.2,22.6-22.6,22.6h-22.6V106.6z"/>
		<path class="st2" d="M186,106.6c0,12.4-10.2,22.6-22.6,22.6c-12.4,0-22.6-10.2-22.6-22.6V50c0-12.4,10.2-22.6,22.6-22.6
			c12.4,0,22.6,10.2,22.6,22.6V106.6z"/>
	</g>
	<g>
		<path class="st3" d="M163.4,197.4c12.4,0,22.6,10.2,22.6,22.6c0,12.4-10.2,22.6-22.6,22.6c-12.4,0-22.6-10.2-22.6-22.6v-22.6
			H163.4z"/>
		<path class="st3" d="M163.4,186c-12.4,0-22.6-10.2-22.6-22.6c0-12.4,10.2-22.6,22.6-22.6H220c12.4,0,22.6,10.2,22.6,22.6
			c0,12.4-10.2,22.6-22.6,22.6H163.4z"/>
	</g>
</g>
</svg>
